<?xml version="1.0" encoding="UTF-8"?>
<svg xmlns="http://www.w3.org/2000/svg"
     version="1.2"
     baseProfile="tiny-ps"
     width="256" height="256"
     viewBox="0 0 256 256"
     preserveAspectRatio="xMidYMid meet">
  <g transform="scale(0.8533333333)">
    <path d="M76.99,171.95c-39.39,11.1-59.98-14.95-66.39-25.27,12.2,8.07,29.11,13.08,52.52,10.1,38.33-4.88,49.26-4.64,69.84,5.36-13.5-.19-31.99,3.05-55.97,9.81ZM94.81,194.81c4.13-.54,7.71-1.32,10.95-2.31h.02c5.3-1.57,9.68-3.67,13.97-6.02,1.68-.91,3.35-1.88,5.05-2.85.9-.52,1.81-1.05,2.73-1.57,4.13-2.34,8.48-4.67,13.65-6.78-8.49-1.85-25.75-1.34-60.87,8.56-7.74,2.18-14.9,3.14-21.49,3.17,1.29.78,2.67,1.57,4.16,2.32,3.29,1.69,7.05,3.24,11.18,4.33,4.99,1.34,10.52,2.04,16.44,1.57,1.46-.12,2.86-.27,4.19-.43ZM210.7,53.94s-.01.06-.02.08c-.34,1.32-4.61,18.61-.28,35.35.79,2.8,1.73,5.53,2.88,8.13,1.11-4.36,2.63-8.79,4.67-12.87,33.85,2.58,34.4,14.35,43.48,16.63,12.26,3.04,22.86,6.48,32.52,11.16,3.95,1.93,6.62,4.78,5.94,8.38l-3.59,8.54s-1.31,12.3-9.76,21.76c-.97-9.16-8.74-16.33-18.13-16.33-11.35,0-20.29,10.41-17.87,22.21,1.38,6.7,6.61,12.19,13.22,13.85,6.46,1.62,12.6-.26,16.91-4.19-.42,22.67-18.89,24.77-18.89,24.77-10.43-19.03-37.02-11.25-37.98,1.65-7.8-9.13-11.97-22.33-9.31-34.32-11.62,16.51-10.42,42.56,2.92,58.65-23.86-10.17-38.82-37.7-38.22-63.75.11-5.73,1-11.53,2.7-17.15,0,0-.15.34-.38,1.01-21.8,54.99,21.49,110.27,21.49,110.27-18.83-13.55-33.45-32.87-41.36-54.68-4.51-12.43-7.03-25.9-14.74-36.63-16.69-23.23-50.74-31.3-76.93-37.51-32.89-7.8-54.53-20.74-64.34-38.46C-.81,68.81-.39,57.97.52,52.24c-.31,1.9,3.38,6.3,4.41,7.71,2.68,3.69,5.9,6.99,9.36,9.96,14.48,12.42,33.09,19.67,51.19,24.92,27.91,8.1,60.17,7.53,83.73,26.6,2.88,2.33,5.52,4.91,7.98,7.67,6.77-31.81,26.55-58.81,53.51-75.16ZM233.74,108.95c-4.72.73-9.39,1.15-14.16.71-.54-.05-1.06-.16-1.58-.29.11.36.38.72.58,1.04,1.72,2.69,4.21,4.9,6.77,6.78,4.36,3.2,9.93,6.25,15.49,6.11,2.29-.07,4.5-.73,6.68-1.39,2.27-.69,4.59-1.2,6.94-1.52.22-.03.45-.06.67,0,.04.01.09.03.13.04.42.15.8.52,1.16.75.57.37,1.11.75,1.67,1.12,1.09.73,2.18,1.44,3.29,2.13-.12-.07-.21-.37-.25-.49-.07-.23-.14-.45-.22-.67-.15-.43-.3-.86-.46-1.28-.95-2.41-2.39-4.68-4.05-6.66-2.26-2.7-5.07-4.79-8.3-6.19-4.76-2.05-9.45-.94-14.35-.19ZM181.9,136.48c-.14.34-.25.68-.38,1.01M107.04,143.31c-.9-.96-2.22-1.69-3.29-2.3-5.07-2.88-10.83-4.6-16.44-6.06-9.61-2.5-19.4-4.1-28.93-6.91-3.67-1.08-7.31-2.27-10.9-3.59-7.32-2.85-14.45-6.25-20.96-10.01-7.34-4.39-14.58-10.96-19.64-16.03L0,91.07s-1.12,30.65,27.05,46.19c4.98,3,10.46,5.11,16.13,6.38,7.06,1.58,14.28,1.83,21.48,1.36,4.91-.32,9.77-1.07,14.67-1.51,4.05-.37,8.1-.67,12.16-.84,3.21-.14,6.43-.21,9.64-.03.31.02.61.04.92.07.85.09,3.93.41,4.99.63Z" fill="#5300ff"/>
  </g>
</svg>